<svg width="10" height="11" viewBox="0 0 10 11" fill="none" xmlns="http://www.w3.org/2000/svg">
<path d="M3.59 5.21264L0.290001 8.50264C0.196762 8.59588 0.1228 8.70657 0.07234 8.82839C0.0218801 8.95022 -0.00409126 9.08078 -0.00409126 9.21264C-0.00409126 9.3445 0.0218801 9.47507 0.07234 9.59689C0.1228 9.71872 0.196762 9.82941 0.290001 9.92264C0.38324 10.0159 0.493929 10.0898 0.615751 10.1403C0.737574 10.1908 0.868141 10.2167 1 10.2167C1.13186 10.2167 1.26243 10.1908 1.38425 10.1403C1.50607 10.0898 1.61676 10.0159 1.71 9.92264L5.71 5.92264C5.80373 5.82968 5.87812 5.71908 5.92889 5.59722C5.97966 5.47536 6.0058 5.34466 6.0058 5.21264C6.0058 5.08063 5.97966 4.94993 5.92889 4.82807C5.87812 4.70621 5.80373 4.59561 5.71 4.50264L1.71 0.502645C1.61704 0.408917 1.50644 0.334521 1.38458 0.283752C1.26272 0.232984 1.13201 0.206846 1 0.206846C0.867989 0.206846 0.737283 0.232984 0.615423 0.283752C0.493564 0.334521 0.382964 0.408917 0.290001 0.502645C0.196273 0.595609 0.121877 0.706208 0.0711079 0.828068C0.020339 0.949927 -0.00579834 1.08063 -0.00579834 1.21264C-0.00579834 1.34466 0.020339 1.47536 0.0711079 1.59722C0.121877 1.71908 0.196273 1.82968 0.290001 1.92264L3.59 5.21264ZM9 10.2126C9.26522 10.2126 9.51957 10.1073 9.70711 9.91975C9.89464 9.73221 10 9.47786 10 9.21264L10 1.21264C10 0.947428 9.89464 0.693073 9.70711 0.505537C9.51957 0.318001 9.26522 0.212645 9 0.212645C8.73478 0.212645 8.48043 0.318001 8.29289 0.505537C8.10536 0.693073 8 0.947428 8 1.21264L8 9.21264C8 9.47786 8.10536 9.73221 8.29289 9.91975C8.48043 10.1073 8.73478 10.2126 9 10.2126Z" fill="#282828"/>
</svg>
