<svg width="12" height="23" viewBox="0 0 12 23" fill="none" xmlns="http://www.w3.org/2000/svg">
<path d="M7.48398 22.8176C6.78021 22.8176 6.10264 22.8176 5.45127 22.8176C4.7999 22.8176 4.12982 22.8176 3.44102 22.8176C3.42604 21.994 3.41855 21.1705 3.41855 20.3469C3.41855 19.5233 3.41855 18.6998 3.41855 17.8762C3.41855 17.0526 3.41855 16.2291 3.41855 15.4055C3.41855 14.5819 3.41855 13.7509 3.41855 12.9123C2.84954 12.9123 2.29551 12.9123 1.75645 12.9123C1.21738 12.9123 0.67832 12.9123 0.139258 12.9123C0.064388 12.7027 0.0194661 12.0925 0.00449219 11.0818C-0.0104818 10.071 0.0119792 9.37848 0.071875 9.00414C0.610937 9.00414 1.15374 9.00414 1.70029 9.00414C2.24684 9.00414 2.81211 9.00414 3.39609 9.00414C3.39609 8.88434 3.39984 8.77578 3.40732 8.67845C3.41481 8.58112 3.41855 8.48753 3.41855 8.39769C3.41855 7.96344 3.41481 7.53294 3.40732 7.10619C3.39984 6.67943 3.41107 6.25641 3.44102 5.83714C3.44102 5.56761 3.46348 5.29808 3.5084 5.02855C3.55332 4.75902 3.61322 4.48949 3.68809 4.21996C3.95762 3.35147 4.38438 2.66266 4.96836 2.15355C5.55234 1.64443 6.28607 1.30003 7.16953 1.12035C7.66367 1.01553 8.15781 0.966864 8.65195 0.97435C9.14609 0.981836 9.64023 1.00056 10.1344 1.0305C10.359 1.04548 10.5799 1.06419 10.797 1.08665C11.0141 1.10912 11.235 1.12783 11.4596 1.14281C11.4596 1.72679 11.4596 2.29955 11.4596 2.86107C11.4596 3.42259 11.4596 3.99535 11.4596 4.57933C11.3248 4.57933 11.19 4.58307 11.0553 4.59056C10.9205 4.59805 10.7932 4.60928 10.6734 4.62425C10.359 4.62425 10.0483 4.628 9.74131 4.63548C9.43434 4.64297 9.12363 4.66169 8.80918 4.69164C8.41986 4.73656 8.11289 4.86384 7.88828 5.07347C7.66367 5.28311 7.54388 5.58259 7.52891 5.97191C7.48398 6.45107 7.46901 6.93773 7.48398 7.43187C7.49896 7.92601 7.50645 8.42764 7.50645 8.93675C8.15033 8.98167 8.79046 8.9929 9.42686 8.97044C10.0632 8.94798 10.7034 8.95921 11.3473 9.00414C11.2724 9.64802 11.1938 10.2882 11.1114 10.9245C11.0291 11.5609 10.943 12.2086 10.8531 12.8674C10.2841 12.8674 9.72259 12.8674 9.16856 12.8674C8.61452 12.8674 8.05299 12.8674 7.48398 12.8674C7.48398 13.706 7.48398 14.537 7.48398 15.3606C7.48398 16.1991 7.48398 17.0302 7.48398 17.8537C7.48398 18.6773 7.48398 19.5009 7.48398 20.3244C7.48398 21.163 7.48398 21.994 7.48398 22.8176Z" fill="#F9F9F9"/>
</svg>
