<svg width="22" height="23" viewBox="0 0 22 23" fill="none" xmlns="http://www.w3.org/2000/svg">
<path d="M16.5425 11.7893C16.5275 12.553 16.3628 13.2717 16.0483 13.9455C15.7489 14.6194 15.3371 15.2034 14.813 15.6975C14.2889 16.1916 13.6825 16.581 12.9937 16.8655C12.3049 17.15 11.5711 17.2847 10.7925 17.2698C10.0288 17.2548 9.31006 17.0901 8.63623 16.7756C7.9624 16.4761 7.37842 16.0718 6.88428 15.5627C6.39014 15.0536 6.00081 14.4621 5.71631 13.7883C5.4318 13.1145 5.29704 12.4032 5.31201 11.6545C5.32699 10.8909 5.48421 10.1721 5.78369 9.49828C6.09814 8.83942 6.51367 8.26292 7.03027 7.76878C7.54688 7.27464 8.14958 6.88532 8.83838 6.60081C9.52718 6.31631 10.2534 6.18154 11.0171 6.19652C11.7808 6.19652 12.4995 6.34626 13.1733 6.64574C13.8472 6.96019 14.4349 7.37197 14.9365 7.88109C15.4382 8.3902 15.8312 8.98167 16.1157 9.6555C16.4152 10.3293 16.5575 11.0406 16.5425 11.7893ZM14.5659 11.7444C14.5659 10.7411 14.2028 9.8876 13.4766 9.18382C12.7503 8.48005 11.8556 8.14313 10.7925 8.17308C9.87907 8.18805 9.07048 8.51374 8.3667 9.15013C7.66292 9.78652 7.30355 10.6363 7.28857 11.6994C7.2736 12.6877 7.618 13.5338 8.32178 14.2375C9.02555 14.9413 9.88656 15.3007 10.9048 15.3157C11.908 15.3306 12.7653 14.99 13.4766 14.2937C14.1878 13.5974 14.5509 12.7476 14.5659 11.7444ZM15.4644 5.99437C15.4644 6.36872 15.5879 6.67568 15.835 6.91527C16.082 7.15485 16.3853 7.27464 16.7446 7.27464C17.104 7.27464 17.4147 7.14736 17.6768 6.89281C17.9388 6.63825 18.0698 6.33877 18.0698 5.99437C18.0698 5.64997 17.9388 5.34675 17.6768 5.0847C17.4147 4.82266 17.104 4.69164 16.7446 4.69164C16.3853 4.69164 16.0783 4.81891 15.8237 5.07347C15.5692 5.32803 15.4494 5.63499 15.4644 5.99437ZM9.53467 22.4807C8.93571 22.4657 8.33675 22.4507 7.73779 22.4358C7.13883 22.4208 6.53988 22.3983 5.94092 22.3684C5.38688 22.3534 4.84408 22.2711 4.3125 22.1213C3.78092 21.9716 3.27555 21.747 2.79639 21.4475C2.04769 20.9683 1.45247 20.3843 1.01074 19.6955C0.56901 19.0067 0.295736 18.2206 0.190918 17.3371C0.116048 16.7981 0.0673828 16.2515 0.0449219 15.6975C0.0224609 15.1435 0.0112305 14.5894 0.0112305 14.0354C-0.00374349 12.8824 -0.00374349 11.7257 0.0112305 10.5652C0.0262044 9.40469 0.0486654 8.24795 0.0786133 7.09496C0.0935872 6.45107 0.187174 5.8334 0.359375 5.24193C0.531576 4.65046 0.80485 4.08519 1.1792 3.54613C1.67334 2.84235 2.26481 2.2958 2.95361 1.90648C3.64242 1.51716 4.40609 1.27009 5.24463 1.16527C5.84359 1.0904 6.45378 1.04173 7.0752 1.01927C7.69661 0.996811 8.31429 0.98558 8.92822 0.98558C10.0812 0.970606 11.238 0.970606 12.3984 0.98558C13.5589 1.00056 14.7157 1.0305 15.8687 1.07542C16.5125 1.0904 17.1302 1.19147 17.7217 1.37865C18.3132 1.56582 18.8634 1.85407 19.3726 2.24339C20.0763 2.76748 20.6191 3.37767 21.001 4.07396C21.3828 4.77025 21.6187 5.54515 21.7085 6.39867C21.7534 6.92276 21.7871 7.43936 21.8096 7.94847C21.832 8.45759 21.8433 8.97419 21.8433 9.49828C21.8433 10.5315 21.8433 11.5684 21.8433 12.6091C21.8433 13.6498 21.8283 14.6942 21.7983 15.7424C21.7834 16.1467 21.7497 16.5548 21.6973 16.9665C21.6449 17.3783 21.5662 17.7864 21.4614 18.1907C21.1619 19.2538 20.6566 20.1148 19.9453 20.7737C19.234 21.4325 18.3468 21.8967 17.2837 22.1662C16.8045 22.301 16.3179 22.3834 15.8237 22.4133C15.3296 22.4433 14.828 22.4582 14.3188 22.4582C14.2889 22.4582 14.2552 22.4582 14.2178 22.4582C14.1803 22.4582 14.1466 22.4657 14.1167 22.4807C13.7573 22.4807 13.3979 22.4807 13.0386 22.4807C12.6792 22.4807 12.3198 22.4807 11.9604 22.4807C11.8107 22.4807 11.6572 22.4807 11.5 22.4807C11.3428 22.4807 11.1818 22.4807 11.0171 22.4807C11.0171 22.4807 11.0171 22.4882 11.0171 22.5032C10.7625 22.5032 10.5117 22.4994 10.2646 22.4919C10.0176 22.4844 9.77425 22.4807 9.53467 22.4807ZM1.92041 11.7444C1.93538 11.984 1.94287 12.2235 1.94287 12.4631C1.94287 12.7027 1.95036 12.9423 1.96533 13.1819C1.98031 13.691 1.99154 14.1964 1.99902 14.698C2.00651 15.1996 2.01774 15.6975 2.03271 16.1916C2.04769 16.536 2.08887 16.873 2.15625 17.2024C2.22363 17.5318 2.32471 17.8612 2.45947 18.1907C2.65413 18.6249 2.91243 18.9993 3.23438 19.3137C3.55632 19.6282 3.94189 19.8752 4.39111 20.0549C4.84033 20.2346 5.30078 20.3507 5.77246 20.4031C6.24414 20.4555 6.71956 20.4892 7.19873 20.5041C8.33675 20.5041 9.47477 20.5079 10.6128 20.5154C11.7508 20.5229 12.8888 20.5191 14.0269 20.5041C14.4162 20.5041 14.798 20.4929 15.1724 20.4704C15.5467 20.448 15.9211 20.4143 16.2954 20.3694C17.2837 20.2496 18.0736 19.8939 18.665 19.3025C19.2565 18.711 19.6121 17.9211 19.7319 16.9328C19.7769 16.6483 19.8068 16.3563 19.8218 16.0569C19.8368 15.7574 19.8442 15.4654 19.8442 15.1809C19.8592 13.983 19.8667 12.7925 19.8667 11.6096C19.8667 10.4267 19.8592 9.24372 19.8442 8.06078C19.8442 7.79124 19.833 7.52546 19.8105 7.26341C19.7881 7.00137 19.7619 6.73558 19.7319 6.46605C19.5972 5.62751 19.3014 4.93496 18.8447 4.38841C18.388 3.84186 17.7479 3.4488 16.9243 3.20921C16.505 3.08942 16.0783 3.0183 15.644 2.99583C15.2098 2.97337 14.7756 2.95466 14.3413 2.93968C13.3381 2.92471 12.3311 2.91722 11.3203 2.91722C10.3096 2.91722 9.29508 2.91722 8.27686 2.91722C7.79769 2.9322 7.31852 2.95091 6.83936 2.97337C6.36019 2.99583 5.88851 3.03701 5.42432 3.09691C4.46598 3.24665 3.71354 3.60228 3.16699 4.1638C2.62044 4.72533 2.2723 5.48525 2.12256 6.44359C2.10758 6.59333 2.09261 6.73932 2.07764 6.88158C2.06266 7.02383 2.04769 7.16983 2.03271 7.31956C2.01774 7.9335 2.00277 8.54743 1.98779 9.16136C1.97282 9.77529 1.95785 10.3892 1.94287 11.0032L1.92041 11.7444Z" fill="#F9F9F9"/>
</svg>
