<svg width="22" height="23" viewBox="0 0 22 23" fill="none" xmlns="http://www.w3.org/2000/svg">
<path d="M5.23404 3.54613C5.23404 2.84235 4.97574 2.23965 4.45914 1.73802C3.94254 1.23639 3.32486 0.98558 2.60611 0.98558C1.88736 0.970606 1.27343 1.21768 0.764314 1.72679C0.255199 2.23591 0.000641741 2.84235 0.000641741 3.54613C-0.0143322 4.26488 0.232738 4.87507 0.741853 5.37669C1.25097 5.87832 1.8649 6.13662 2.58365 6.1516C3.3024 6.16657 3.92756 5.91201 4.45914 5.38792C4.99071 4.86384 5.24901 4.2499 5.23404 3.54613ZM12.2643 22.3459H7.83951C7.80956 22.2261 7.77961 21.4625 7.74967 20.0549C7.73469 18.6324 7.72346 17.0751 7.71597 15.383C7.70849 13.691 7.71223 12.1112 7.7272 10.6438C7.7272 9.17634 7.74218 8.33031 7.77213 8.1057C8.28124 8.07575 8.79784 8.06078 9.32193 8.06078C9.84602 8.06078 10.3776 8.06826 10.9167 8.08324C11.0963 8.08324 11.2835 8.08324 11.4782 8.08324C11.6728 8.08324 11.8675 8.08324 12.0622 8.08324V9.85765C12.0771 9.85765 12.0884 9.85765 12.0959 9.85765C12.1033 9.85765 12.1071 9.85765 12.1071 9.85765C12.1221 9.85765 12.1333 9.85765 12.1408 9.85765C12.1483 9.85765 12.1595 9.86514 12.1745 9.88011C12.1894 9.86514 12.2007 9.85016 12.2082 9.83519C12.2156 9.82022 12.2194 9.81273 12.2194 9.81273C12.2493 9.78278 12.2793 9.75283 12.3092 9.72289C12.3392 9.69294 12.3691 9.6555 12.3991 9.61058C12.8483 9.04157 13.3724 8.60358 13.9713 8.29662C14.5703 7.98965 15.2217 7.80622 15.9254 7.74632C16.4645 7.7014 16.9923 7.71263 17.5089 7.78001C18.0255 7.8474 18.5309 7.97842 19.0251 8.17308C19.5042 8.38272 19.916 8.65599 20.2604 8.9929C20.6048 9.32982 20.8893 9.73037 21.1139 10.1946C21.3685 10.7336 21.5482 11.2952 21.653 11.8791C21.7578 12.4631 21.8102 13.0471 21.8102 13.6311C21.8252 14.6793 21.8327 15.7237 21.8327 16.7644C21.8327 17.8051 21.8327 18.842 21.8327 19.8752C21.8327 20.2047 21.8327 20.5341 21.8327 20.8635C21.8327 21.1929 21.8327 21.5224 21.8327 21.8518C21.8327 21.9117 21.8327 21.9641 21.8327 22.009C21.8327 22.0539 21.8252 22.1063 21.8102 22.1662C21.8102 22.1962 21.8065 22.2261 21.799 22.2561C21.7915 22.286 21.7878 22.316 21.7878 22.3459H17.3629C17.3629 22.301 17.3592 22.2561 17.3517 22.2112C17.3442 22.1662 17.3405 22.1288 17.3405 22.0989C17.3405 22.009 17.3367 21.9192 17.3293 21.8293C17.3218 21.7395 17.318 21.6496 17.318 21.5598C17.318 21.2004 17.318 20.841 17.318 20.4817C17.318 20.1223 17.3105 19.7554 17.2956 19.3811C17.2956 18.5725 17.2956 17.7602 17.2956 16.9441C17.2956 16.128 17.2881 15.3157 17.2731 14.5071C17.2731 14.2525 17.2506 13.9942 17.2057 13.7322C17.1608 13.4701 17.1009 13.2193 17.026 12.9797C16.9062 12.6203 16.7191 12.3358 16.4645 12.1262C16.21 11.9166 15.903 11.7818 15.5436 11.7219C15.2741 11.662 15.0045 11.6396 14.735 11.6545C14.4655 11.6695 14.196 11.7144 13.9264 11.7893C13.5521 11.9091 13.2451 12.0925 13.0055 12.3396C12.7659 12.5867 12.6012 12.8974 12.5114 13.2717C12.4365 13.5712 12.3804 13.8707 12.3429 14.1702C12.3055 14.4696 12.2793 14.7691 12.2643 15.0686C12.2643 15.8622 12.2643 16.6633 12.2643 17.4719C12.2643 18.2805 12.2643 19.0816 12.2643 19.8752C12.2643 20.1747 12.2643 20.4779 12.2643 20.7849C12.2643 21.0919 12.2643 21.3951 12.2643 21.6946C12.2643 21.7994 12.2643 21.9005 12.2643 21.9978C12.2643 22.0951 12.2643 22.2112 12.2643 22.3459ZM4.8522 22.3235H0.472321C0.442374 22.2187 0.419913 21.47 0.404939 20.0774C0.374991 18.6848 0.356273 17.1425 0.348786 15.4504C0.341299 13.7584 0.337556 12.1786 0.337556 10.7112C0.35253 9.22874 0.374991 8.36026 0.404939 8.1057C0.973949 8.07575 1.54296 8.06078 2.11197 8.06078C2.68098 8.06078 3.24999 8.06826 3.819 8.08324C3.96874 8.08324 4.12597 8.08324 4.29068 8.08324C4.45539 8.08324 4.62011 8.08324 4.78482 8.08324C4.81477 8.20303 4.84472 8.95921 4.87467 10.3518C4.88964 11.7444 4.90461 13.2792 4.91959 14.9563C4.93456 16.6334 4.93456 18.2056 4.91959 19.6731C4.90461 21.1555 4.88215 22.039 4.8522 22.3235Z" fill="#F9F9F9"/>
</svg>
