<svg width="45" height="51" viewBox="0 0 45 51" fill="none" xmlns="http://www.w3.org/2000/svg">
<path d="M7.50639 44.7654C17.104 43.7198 26.4211 42.7082 35.7382 41.6965C35.7382 41.7646 35.7382 41.8326 35.7467 41.9006C27.9003 43.1757 20.0539 44.4594 12.2075 45.743C11.5189 45.8535 10.8133 45.9641 10.1417 46.1681C7.31937 47.0012 4.54804 47.7493 2.10825 45.1735C1.6747 44.7144 0.8416 44.6379 0 44.3149C1.98924 32.2264 3.97847 20.104 5.99321 7.83703C8.24598 7.94754 10.3202 8.04956 12.454 8.15157C12.607 7.34397 12.709 6.65539 12.862 5.98381C13.7291 2.24337 17.1295 -0.323938 20.7085 0.033104C24.8485 0.449654 27.6198 3.44201 27.7983 7.47999C27.8918 9.66475 28.2914 11.8325 28.4529 14.0088C28.4869 14.4933 28.2149 15.0969 27.8833 15.4624C27.7048 15.658 26.8972 15.5985 26.7187 15.3774C26.4211 14.9949 26.2171 14.3743 26.2851 13.8983C26.4806 12.5806 26.8462 11.2884 27.1947 9.76676H13.3466C13.6271 11.2034 13.9417 12.4361 14.0947 13.6942C14.1627 14.2383 14.0437 14.9184 13.7461 15.3519C13.5931 15.5729 12.5645 15.5474 12.4285 15.3264C12.1564 14.8844 12.0969 14.2128 12.1649 13.6602C12.318 12.4446 12.607 11.2459 12.8365 10.0728C9.60614 9.12918 9.2321 9.36721 9.08758 12.1725C8.56052 22.2547 8.03345 32.3369 7.51489 42.4276C7.47239 43.2437 7.51489 44.0598 7.51489 44.7569L7.50639 44.7654ZM13.6186 8.33859C18.0901 8.72964 22.3747 9.11218 26.6252 9.48623C27.4328 6.51937 26.5657 3.95207 24.2959 2.19236C22.1961 0.568667 19.2293 0.347641 16.9425 1.73331C14.5792 3.16148 13.3466 5.21872 13.6271 8.34709L13.6186 8.33859ZM4.44603 45.7175C4.70106 45.624 4.95609 45.5305 5.21112 45.437C5.94221 33.034 6.66479 20.6396 7.39588 8.23658C5.75518 9.40122 1.03712 42.3426 2.09125 44.2043C2.74583 40.9995 3.31539 38.1941 3.88496 35.3973C3.97847 38.1006 3.74895 40.7614 3.68944 43.4308C3.67244 44.1873 4.1825 44.9524 4.45453 45.7175H4.44603Z" fill="#F9F9F9"/>
<path d="M5.52555 50.9626C5.37253 49.6959 5.29603 48.8798 6.63918 48.5483C18.9912 45.5474 31.5131 43.6602 44.2051 42.8441C31.0966 44.2893 18.2771 47.1796 5.52555 50.9626Z" fill="#F9F9F9"/>
</svg>
