<svg width="24" height="25" viewBox="0 0 24 25" fill="none" xmlns="http://www.w3.org/2000/svg">
<path d="M15 18.4813C15.5523 18.4813 16 18.929 16 19.4813C16 20.0336 15.5523 20.4813 15 20.4813H6C5.44772 20.4813 5 20.0336 5 19.4813C5 18.929 5.44772 18.4813 6 18.4813H15ZM20 11.4813C20.5523 11.4813 21 11.929 21 12.4813C21 13.0336 20.5523 13.4813 20 13.4813H4C3.44772 13.4813 3 13.0336 3 12.4813C3 11.929 3.44772 11.4813 4 11.4813H20ZM18 4.48132C18.5523 4.48132 19 4.92904 19 5.48132C19 6.03361 18.5523 6.48132 18 6.48132H9C8.44771 6.48132 8 6.03361 8 5.48132C8 4.92904 8.44772 4.48132 9 4.48132H18Z" fill="#F9F9F9"/>
</svg>
