<svg width="8" height="12" viewBox="0 0 8 12" fill="none" xmlns="http://www.w3.org/2000/svg">
<path d="M3.28982 6.21266L6.82982 2.67266C7.01607 2.48529 7.12061 2.23184 7.12061 1.96766C7.12061 1.70347 7.01607 1.45002 6.82982 1.26266C6.73686 1.16893 6.62626 1.09453 6.5044 1.04376C6.38254 0.992996 6.25183 0.966858 6.11982 0.966858C5.98781 0.966858 5.8571 0.992996 5.73524 1.04376C5.61339 1.09453 5.50278 1.16893 5.40982 1.26266L1.16982 5.50266C1.07609 5.59562 1.0017 5.70622 0.950931 5.82808C0.900162 5.94994 0.874023 6.08064 0.874023 6.21266C0.874023 6.34467 0.900162 6.47537 0.950931 6.59723C1.0017 6.71909 1.07609 6.82969 1.16982 6.92266L5.40982 11.2127C5.50326 11.3053 5.61408 11.3787 5.73592 11.4284C5.85775 11.4782 5.98821 11.5034 6.11982 11.5027C6.25143 11.5034 6.38189 11.4782 6.50373 11.4284C6.62557 11.3787 6.73638 11.3053 6.82982 11.2127C7.01607 11.0253 7.12061 10.7718 7.12061 10.5077C7.12061 10.2435 7.01607 9.99002 6.82982 9.80266L3.28982 6.21266Z" fill="#282828"/>
</svg>
