<svg width="96" height="17" viewBox="0 0 96 17" fill="none" xmlns="http://www.w3.org/2000/svg">
<g clip-path="url(#clip0_6_3688)">
<path d="M8.00004 1.54596L10.06 5.71929L14.6667 6.39263L11.3334 9.63929L12.12 14.226L8.00004 12.0593L3.88004 14.226L4.66671 9.63929L1.33337 6.39263L5.94004 5.71929L8.00004 1.54596Z" fill="#F6AA24" stroke="#F6AA24" stroke-width="1.5" stroke-linecap="round" stroke-linejoin="round"/>
</g>
<g clip-path="url(#clip1_6_3688)">
<path d="M28 1.54596L30.06 5.71929L34.6667 6.39263L31.3334 9.63929L32.12 14.226L28 12.0593L23.88 14.226L24.6667 9.63929L21.3334 6.39263L25.94 5.71929L28 1.54596Z" fill="#F6AA24" stroke="#F6AA24" stroke-width="1.5" stroke-linecap="round" stroke-linejoin="round"/>
</g>
<g clip-path="url(#clip2_6_3688)">
<path d="M48 1.54596L50.06 5.71929L54.6667 6.39263L51.3334 9.63929L52.12 14.226L48 12.0593L43.88 14.226L44.6667 9.63929L41.3334 6.39263L45.94 5.71929L48 1.54596Z" fill="#F6AA24" stroke="#F6AA24" stroke-width="1.5" stroke-linecap="round" stroke-linejoin="round"/>
</g>
<g clip-path="url(#clip3_6_3688)">
<path d="M68 1.54596L70.06 5.71929L74.6667 6.39263L71.3334 9.63929L72.12 14.226L68 12.0593L63.88 14.226L64.6667 9.63929L61.3334 6.39263L65.94 5.71929L68 1.54596Z" fill="#F6AA24" stroke="#F6AA24" stroke-width="1.5" stroke-linecap="round" stroke-linejoin="round"/>
</g>
<g clip-path="url(#clip4_6_3688)">
<path d="M88 1.54596L90.06 5.71929L94.6667 6.39263L91.3334 9.63929L92.12 14.226L88 12.0593L83.88 14.226L84.6667 9.63929L81.3334 6.39263L85.94 5.71929L88 1.54596Z" fill="#F6AA24" stroke="#F6AA24" stroke-width="1.5" stroke-linecap="round" stroke-linejoin="round"/>
</g>
<defs>
<clipPath id="clip0_6_3688">
<rect width="16" height="16" fill="white" transform="translate(0 0.212646)"/>
</clipPath>
<clipPath id="clip1_6_3688">
<rect width="16" height="16" fill="white" transform="translate(20 0.212646)"/>
</clipPath>
<clipPath id="clip2_6_3688">
<rect width="16" height="16" fill="white" transform="translate(40 0.212646)"/>
</clipPath>
<clipPath id="clip3_6_3688">
<rect width="16" height="16" fill="white" transform="translate(60 0.212646)"/>
</clipPath>
<clipPath id="clip4_6_3688">
<rect width="16" height="16" fill="white" transform="translate(80 0.212646)"/>
</clipPath>
</defs>
</svg>
