<svg width="10" height="11" viewBox="0 0 10 11" fill="none" xmlns="http://www.w3.org/2000/svg">
<path d="M6.41 5.21265L9.71 1.92265C9.80324 1.82941 9.8772 1.71872 9.92766 1.5969C9.97812 1.47508 10.0041 1.34451 10.0041 1.21265C10.0041 1.08079 9.97812 0.950222 9.92766 0.8284C9.8772 0.706578 9.80324 0.595887 9.71 0.502649C9.61676 0.40941 9.50607 0.33545 9.38425 0.284989C9.26243 0.234529 9.13186 0.208557 9 0.208557C8.86814 0.208557 8.73757 0.234529 8.61575 0.284989C8.49393 0.33545 8.38324 0.40941 8.29 0.502649L4.29 4.50265C4.19627 4.59561 4.12188 4.70621 4.07111 4.82807C4.02034 4.94993 3.9942 5.08064 3.9942 5.21265C3.9942 5.34466 4.02034 5.47537 4.07111 5.59723C4.12188 5.71908 4.19627 5.82969 4.29 5.92265L8.29 9.92265C8.38296 10.0164 8.49356 10.0908 8.61542 10.1415C8.73728 10.1923 8.86799 10.2184 9 10.2184C9.13201 10.2184 9.26272 10.1923 9.38458 10.1415C9.50644 10.0908 9.61704 10.0164 9.71 9.92265C9.80373 9.82968 9.87812 9.71908 9.92889 9.59723C9.97966 9.47537 10.0058 9.34466 10.0058 9.21265C10.0058 9.08064 9.97966 8.94993 9.92889 8.82807C9.87812 8.70621 9.80373 8.59561 9.71 8.50265L6.41 5.21265ZM1 0.212649C0.734784 0.212649 0.48043 0.318006 0.292893 0.505542C0.105357 0.693079 0 0.947432 0 1.21265V9.21265C0 9.47787 0.105357 9.73222 0.292893 9.91976C0.48043 10.1073 0.734784 10.2126 1 10.2126C1.26522 10.2126 1.51957 10.1073 1.70711 9.91976C1.89464 9.73222 2 9.47787 2 9.21265V1.21265C2 0.947432 1.89464 0.693079 1.70711 0.505542C1.51957 0.318006 1.26522 0.212649 1 0.212649Z" fill="#282828"/>
</svg>
