<svg width="22" height="19" viewBox="0 0 22 19" fill="none" xmlns="http://www.w3.org/2000/svg">
<path d="M2.51562 6.94749C1.94661 6.49828 1.50863 5.98167 1.20166 5.39769C0.894694 4.81371 0.733724 4.16234 0.71875 3.44359C0.703776 3.05427 0.744954 2.66494 0.842285 2.27562C0.939616 1.8863 1.10059 1.50446 1.3252 1.13011C1.9541 1.83389 2.61296 2.45531 3.30176 2.99437C4.00553 3.54841 4.743 4.01634 5.51416 4.39818C6.28532 4.78001 7.09766 5.09072 7.95117 5.33031C8.81966 5.55492 9.72559 5.69717 10.6689 5.75706C10.654 5.63727 10.6465 5.5362 10.6465 5.45384C10.6465 5.37149 10.639 5.29287 10.624 5.218C10.5641 4.55915 10.639 3.93024 10.8486 3.33128C11.0583 2.73233 11.369 2.20449 11.7808 1.74779C12.1925 1.29108 12.6904 0.93545 13.2744 0.680893C13.8584 0.411362 14.4798 0.276596 15.1387 0.276596C15.7376 0.276596 16.2917 0.373926 16.8008 0.568588C17.3099 0.76325 17.7816 1.05524 18.2158 1.44456C18.3206 1.53441 18.4292 1.59431 18.5415 1.62425C18.6538 1.6542 18.7773 1.64671 18.9121 1.60179C19.2415 1.46703 19.5747 1.336 19.9116 1.20872C20.2485 1.08145 20.5892 0.957911 20.9336 0.83812C20.9785 0.823145 21.0309 0.800684 21.0908 0.770737C21.1507 0.740789 21.2331 0.703354 21.3379 0.658432C21.2331 0.927963 21.1283 1.16755 21.0234 1.37718C20.9186 1.58682 20.7913 1.78148 20.6416 1.96117C20.4919 2.12588 20.3346 2.29434 20.1699 2.46654C20.0052 2.63874 19.8555 2.83714 19.7207 3.06175C20.0651 2.97191 20.4132 2.87832 20.7651 2.78099C21.117 2.68366 21.4727 2.59007 21.832 2.50023C21.6823 2.79971 21.5026 3.05801 21.293 3.27513C21.0833 3.49225 20.8737 3.70563 20.6641 3.91527C20.5143 4.06501 20.3496 4.19977 20.1699 4.31956C19.9902 4.43936 19.863 4.5891 19.7881 4.76878C19.6982 4.94847 19.6683 5.14688 19.6982 5.364C19.7282 5.58112 19.7357 5.7945 19.7207 6.00414C19.6458 7.08226 19.4474 8.12669 19.1255 9.13744C18.8035 10.1482 18.3431 11.1103 17.7441 12.0237C17.0853 13.0718 16.3516 13.9778 15.543 14.7414C14.7194 15.4901 13.8322 16.1116 12.8813 16.6057C11.9305 17.0998 10.9085 17.4667 9.81543 17.7063C8.72233 17.9309 7.56185 18.0357 6.33398 18.0207C5.21094 17.9908 4.12533 17.8186 3.07715 17.5041C2.02897 17.1897 1.02572 16.748 0.0673828 16.1789C0.0524089 16.164 0.0411784 16.1452 0.0336914 16.1228C0.0262044 16.1003 0.014974 16.0741 0 16.0442C1.15299 16.1041 2.26481 15.9993 3.33545 15.7297C4.40609 15.4602 5.43555 14.9586 6.42383 14.2248C6.19922 14.1799 6.00081 14.1387 5.82861 14.1013C5.65641 14.0639 5.48796 14.0152 5.32324 13.9553C5.14355 13.8954 4.97135 13.8318 4.80664 13.7644C4.64193 13.697 4.47721 13.6184 4.3125 13.5285C4.16276 13.4537 4.02051 13.3638 3.88574 13.259C3.75098 13.1542 3.61621 13.0419 3.48145 12.9221C3.36165 12.8023 3.24186 12.6713 3.12207 12.529C3.00228 12.3868 2.89746 12.2408 2.80762 12.091C2.7028 11.9413 2.60921 11.7841 2.52686 11.6194C2.4445 11.4547 2.35091 11.2675 2.24609 11.0578C2.57552 11.0578 2.875 11.0578 3.14453 11.0578C3.41406 11.0578 3.68359 11.0578 3.95312 11.0578C3.9681 11.0279 3.97933 11.0054 3.98682 10.9905C3.9943 10.9755 4.00553 10.9605 4.02051 10.9455C3.00228 10.5562 2.20492 10.0097 1.62842 9.30589C1.05192 8.60212 0.733724 7.69619 0.673828 6.58812C0.988281 6.67796 1.28776 6.76406 1.57227 6.84642C1.85677 6.92878 2.14128 7.00739 2.42578 7.08226C2.44076 7.06729 2.45573 7.04857 2.4707 7.02611C2.48568 7.00365 2.50065 6.97744 2.51562 6.94749Z" fill="#F9F9F9"/>
</svg>
